<?xml version="1.0" encoding="UTF-8"?>
<svg version="1.1" xmlns="http://www.w3.org/2000/svg" width="40" height="40">
    <path d="M0 0 C0.33 0.33 0.66 0.66 1 1 C1.33 0.34 1.66 -0.32 2 -1 C2.99 -1 3.98 -1 5 -1 C4.95875 -0.071875 4.9175 0.85625 4.875 1.8125 C4.72863661 5.15809719 4.72863661 5.15809719 7 8 C7.45240318 12.59943231 7.50967761 14.98064478 5.4375 19.125 C1.15046798 24.1814993 -3.02465393 28.70734301 -9.8125 29.375 C-13.31527242 29.33699524 -13.86886266 29.10729419 -16.75 26.75 C-17.4925 25.8425 -18.235 24.935 -19 24 C-19.763125 23.401875 -20.52625 22.80375 -21.3125 22.1875 C-23.92407871 18.80212019 -23.33931675 16.20752767 -23 12 C-22 10 -22 10 -20 9 C-19.0360718 7.89756012 -18.10202276 6.76875669 -17.1875 5.625 C-11.8503582 -0.61021854 -7.99118133 -1.78315616 0 0 Z " fill="#FFB366" transform="translate(28,6)"/>
    <path d="M0 0 C0.33 0.33 0.66 0.66 1 1 C1.33 0.34 1.66 -0.32 2 -1 C2.99 -1 3.98 -1 5 -1 C4.95875 -0.071875 4.9175 0.85625 4.875 1.8125 C4.72863661 5.15809719 4.72863661 5.15809719 7 8 C7.45240318 12.59943231 7.50967761 14.98064478 5.4375 19.125 C1.15046798 24.1814993 -3.02465393 28.70734301 -9.8125 29.375 C-13.31527242 29.33699524 -13.86886266 29.10729419 -16.75 26.75 C-17.4925 25.8425 -18.235 24.935 -19 24 C-19.763125 23.401875 -20.52625 22.80375 -21.3125 22.1875 C-23.92407871 18.80212019 -23.33931675 16.20752767 -23 12 C-22 10 -22 10 -20 9 C-19.0360718 7.89756012 -18.10202276 6.76875669 -17.1875 5.625 C-11.8503582 -0.61021854 -7.99118133 -1.78315616 0 0 Z M-17 8 C-17.17015625 8.70640625 -17.3403125 9.4128125 -17.515625 10.140625 C-17.67546875 10.75421875 -17.8353125 11.3678125 -18 12 C-18.99 12.33 -19.98 12.66 -21 13 C-21.41809201 15.83151973 -21.41809201 15.83151973 -21 19 C-18.71463073 21.19504488 -18.71463073 21.19504488 -16 23 C-15.525625 23.7425 -15.05125 24.485 -14.5625 25.25 C-13.07088238 27.24797267 -13.07088238 27.24797267 -10.3125 27.6875 C-5.32972134 26.65333839 -2.53210018 23.51703792 1 20 C1.85464844 19.2884375 1.85464844 19.2884375 2.7265625 18.5625 C4.46922455 16.42426436 4.30562235 15.02931415 4.1875 12.3125 C4.16042969 11.50425781 4.13335937 10.69601563 4.10546875 9.86328125 C4.05326172 8.94095703 4.05326172 8.94095703 4 8 C0.98968256 7.06576355 0.13349732 6.95550089 -3 8 C-3 7.34 -3 6.68 -3 6 C-5.31 6 -7.62 6 -10 6 C-8 4 -8 4 -5 2 C-10.34003496 1.02908455 -13.69630385 4.12792602 -17 8 Z " fill="#87654F" transform="translate(28,6)"/>
    <path d="M0 0 C0.33 0 0.66 0 1 0 C1 1.65 1 3.3 1 5 C-0.32 5.33 -1.64 5.66 -3 6 C-1.80589651 11.53629802 -0.39566549 14.16788137 4 18 C4.33 18.33 4.66 18.66 5 19 C7.67058851 19.14115161 10.32432238 19.04247107 13 19 C12.67 19.99 12.34 20.98 12 22 C4.75085324 22.61433447 4.75085324 22.61433447 1.25 19.75 C0.5075 18.8425 -0.235 17.935 -1 17 C-1.763125 16.401875 -2.52625 15.80375 -3.3125 15.1875 C-5.92407871 11.80212019 -5.33931675 9.20752767 -5 5 C-4 3 -4 3 -2 2 C-1.34 1.34 -0.68 0.68 0 0 Z " fill="#765544" transform="translate(10,13)"/>
    <path d="M0 0 C0.3125 2.25 0.3125 2.25 0 5 C-2.25 7.3125 -2.25 7.3125 -5 9 C-6.32 9 -7.64 9 -9 9 C-8.51392405 3.53164557 -8.51392405 3.53164557 -6.1875 1.125 C-4 0 -4 0 0 0 Z " fill="#B8864D" transform="translate(24,16)"/>
    <path d="M0 0 C0.33 0 0.66 0 1 0 C1.84640388 3.07265946 2.28073512 5.81341007 2 9 C-0.44625863 13.29002627 -3.55482186 16.26203669 -7.9375 18.5 C-8.9584375 18.7475 -8.9584375 18.7475 -10 19 C-8.30960987 15.80704086 -6.56206729 13.54514318 -3.875 11.1875 C-0.27156174 7.77136918 -0.16724815 4.85019635 0 0 Z " fill="#A56543" transform="translate(32,15)"/>
    <path d="M0 0 C2.8125 0.1875 2.8125 0.1875 6 1 C7.875 3.5625 7.875 3.5625 9 6 C7.68 6.33 6.36 6.66 5 7 C5 6.34 5 5.68 5 5 C0.35413108 5.48484276 0.35413108 5.48484276 -4 7 C-2.84826645 4.53199953 -1.95216435 2.95216435 0 1 C0 0.67 0 0.34 0 0 Z " fill="#CC9966" transform="translate(20,7)"/>
    <path d="M0 0 C-0.99 0.66 -1.98 1.32 -3 2 C-4.67083819 3.32810215 -6.33729713 4.66172696 -8 6 C-9.32901064 7.00573778 -10.66073801 8.00795408 -12 9 C-11.74956884 5.61917938 -10.7185873 4.7185873 -8.25 2.25 C-4.98370194 -0.01128327 -3.8309219 -0.56337087 0 0 Z " fill="#FFAA55" transform="translate(23,8)"/>
</svg>